<svg t="1646465179725" class="icon" viewBox="0 0 1024 1024" version="1.1" xmlns="http://www.w3.org/2000/svg" p-id="5227" width="200" height="200"><path d="M927 864H96c-17.67 0-32 14.33-32 32s14.33 32 32 32h831c17.67 0 32-14.33 32-32s-14.33-32-32-32z" p-id="5228"></path><path d="M864.5 928H719V441.75c0-40.18 32.57-72.75 72.75-72.75s72.75 32.57 72.75 72.75V928zM575.5 98h-323c-44.18 0-80 35.82-80 80v750h483V178c0-44.18-35.82-80-80-80z m-34.75 550.5c0 17.67-14.33 32-32 32h-189.5c-17.67 0-32-14.33-32-32s14.33-32 32-32h189.5c17.67 0 32 14.33 32 32z m0-145.5c0 17.67-14.33 32-32 32h-189.5c-17.67 0-32-14.33-32-32s14.33-32 32-32h189.5c17.67 0 32 14.33 32 32z m0-145.5c0 17.67-14.33 32-32 32h-189.5c-17.67 0-32-14.33-32-32s14.33-32 32-32h189.5c17.67 0 32 14.33 32 32z" p-id="5229"></path></svg>